<svg width="100%" height="100%" viewBox="0 0 26.458333 26.458333" version="1.1" id="svg5">
  <defs id="defs2">
    <rect x="-2824.8716" y="-7937.8896" width="1746.3372" height="479.65701" id="rect4761" />
    <rect x="-1787.9084" y="-6865.6152" width="434.32404" height="71.79882" id="rect3111" />
    <rect x="20.137583" y="-5647.4731" width="427.36426" height="67.125275" id="rect23339" />
    <rect x="3087.519" y="-2364.4072" width="1030.7762" height="154.20525" id="rect12764" />
    <rect x="2966.4399" y="-2525.8462" width="1180.522" height="141.25903" id="rect12758" />
    <rect x="2966.4399" y="-2525.8462" width="1180.522" height="141.25903" id="rect12758-5" />
    <rect x="2966.4399" y="-2525.8462" width="1180.522" height="141.25903" id="rect12758-5-7" />
    <rect x="2966.4399" y="-2525.8462" width="1180.522" height="141.25903" id="rect12758-5-7-0" />
    <rect x="2966.4399" y="-2525.8462" width="1180.522" height="141.25903" id="rect12758-5-7-03" />
    <rect x="2966.4399" y="-2525.8462" width="1180.522" height="141.25903" id="rect12758-9" />
    <rect x="2966.4399" y="-2525.8462" width="1180.522" height="141.25903" id="rect12758-5-0" />
    <rect x="2966.4399" y="-2525.8462" width="1180.522" height="141.25903" id="rect12758-5-7-039" />
    <rect x="2966.4399" y="-2525.8462" width="1180.522" height="141.25903" id="rect12758-5-7-0-5" />
    <rect x="2966.4399" y="-2525.8462" width="1180.522" height="141.25903" id="rect12758-5-7-03-3" />
    <rect x="3087.519" y="-2364.4072" width="1030.7762" height="154.20525" id="rect12764-1" />
    <rect x="2966.4399" y="-2525.8462" width="182.90355" height="118.96588" id="rect12758-5-9" />
    <rect x="2966.4399" y="-2525.8462" width="182.90355" height="118.96588" id="rect12758-5-9-7" />
    <rect x="2966.4399" y="-2525.8462" width="182.90355" height="118.96588" id="rect12758-5-9-7-6" />
    <rect x="2966.4399" y="-2525.8462" width="182.90355" height="118.96588" id="rect12758-5-9-7-3" />
    <rect x="2966.4399" y="-2525.8462" width="182.90355" height="118.96588" id="rect12758-5-9-7-2" />
    <rect x="2966.4399" y="-2525.8462" width="182.90355" height="118.96588" id="rect12758-5-9-7-30" />
    <rect x="2966.4399" y="-2525.8462" width="182.90355" height="118.96588" id="rect12758-5-9-7-7" />
    <rect x="2966.4399" y="-2525.8462" width="1180.522" height="141.25903" id="rect12758-2" />
    <rect x="2966.4399" y="-2525.8462" width="1180.522" height="141.25903" id="rect12758-5-1" />
    <rect x="2966.4399" y="-2525.8462" width="182.90355" height="118.96588" id="rect12758-5-9-8" />
    <rect x="2966.4399" y="-2525.8462" width="182.90355" height="118.96588" id="rect12758-5-9-7-4" />
    <rect x="2966.4399" y="-2525.8462" width="182.90355" height="118.96588" id="rect12758-5-9-7-6-2" />
    <rect x="2966.4399" y="-2525.8462" width="182.90355" height="118.96588" id="rect12758-5-9-7-3-1" />
    <rect x="2966.4399" y="-2525.8462" width="182.90355" height="118.96588" id="rect12758-5-9-7-2-0" />
    <rect x="2966.4399" y="-2525.8462" width="182.90355" height="118.96588" id="rect12758-5-9-7-30-6" />
    <rect x="2966.4399" y="-2525.8462" width="182.90355" height="118.96588" id="rect12758-5-9-7-7-0" />
    <rect x="2966.4399" y="-2525.8462" width="1180.522" height="141.25903" id="rect12758-5-7-3" />
    <rect x="2966.4399" y="-2525.8462" width="1180.522" height="141.25903" id="rect12758-5-7-0-7" />
    <rect x="2966.4399" y="-2525.8462" width="1180.522" height="141.25903" id="rect12758-5-7-03-8" />
    <rect x="2966.4399" y="-2525.8462" width="1180.522" height="141.25903" id="rect12758-5-1-7" />
    <rect x="2966.4399" y="-2525.8462" width="182.90355" height="118.96588" id="rect12758-5-9-8-1" />
    <rect x="2966.4399" y="-2525.8462" width="182.90355" height="118.96588" id="rect12758-5-9-7-4-5" />
    <rect x="2966.4399" y="-2525.8462" width="182.90355" height="118.96588" id="rect12758-5-9-7-6-2-9" />
    <rect x="2966.4399" y="-2525.8462" width="182.90355" height="118.96588" id="rect12758-5-9-7-3-1-1" />
    <rect x="2966.4399" y="-2525.8462" width="1180.522" height="141.25903" id="rect12758-5-7-3-5" />
    <rect x="20.137583" y="-5647.4731" width="369.18903" height="67.125275" id="rect23339-5" />
    <rect x="2966.4399" y="-2525.8462" width="182.90355" height="118.96588" id="rect12758-5-9-7-6-2-5" />
    <rect x="2966.4399" y="-2525.8462" width="507.33084" height="415.58511" id="rect12758-5-9-7-6-2-90" />
    <rect x="2966.4399" y="-2525.8462" width="182.90355" height="118.96588" id="rect12758-5-9-8-4" />
    <rect x="2966.4399" y="-2525.8462" width="182.90355" height="118.96588" id="rect12758-5-9-7-4-0" />
    <rect x="2966.4399" y="-2525.8462" width="182.90355" height="118.96588" id="rect12758-5-9-7-6-2-7" />
    <rect x="2966.4399" y="-2525.8462" width="262.61996" height="111.5504" id="rect12758-5-9-7-6-2-90-3" />
    <rect x="2966.4399" y="-2525.8462" width="182.90355" height="118.96588" id="rect12758-5-9-7-6-2-5-2" />
    <rect x="2966.4399" y="-2525.8462" width="182.90355" height="118.96588" id="rect12758-5-9-7-6-2-5-2-9" />
    <rect x="2966.4399" y="-2525.8462" width="262.61996" height="111.5504" id="rect12758-5-9-7-6-2-90-3-0" />
    <rect x="2966.4399" y="-2525.8462" width="182.90355" height="118.96588" id="rect12758-5-9-7-6-2-7-3" />
    <rect x="2966.4399" y="-2525.8462" width="182.90355" height="118.96588" id="rect12758-5-9-7-4-0-5" />
    <rect x="2966.4399" y="-2525.8462" width="182.90355" height="118.96588" id="rect12758-5-9-8-4-8" />
    <rect x="2966.4399" y="-2525.8462" width="182.90355" height="118.96588" id="rect12758-5-9-7-6-2-5-2-9-0" />
    <rect x="2966.4399" y="-2525.8462" width="262.61996" height="111.5504" id="rect12758-5-9-7-6-2-90-3-0-8" />
    <rect x="2966.4399" y="-2525.8462" width="182.90355" height="118.96588" id="rect12758-5-9-7-6-2-7-3-5" />
    <rect x="2966.4399" y="-2525.8462" width="182.90355" height="118.96588" id="rect12758-5-9-7-4-0-5-8" />
    <rect x="2966.4399" y="-2525.8462" width="182.90355" height="118.96588" id="rect12758-5-9-8-4-8-4" />
    <rect x="2966.4399" y="-2525.8462" width="182.90355" height="118.96588" id="rect12758-5-9-7-6-2-5-2-9-7" />
    <rect x="2966.4399" y="-2525.8462" width="507.33084" height="415.58511" id="rect12758-5-9-7-6-2-90-9" />
    <clipPath clipPathUnits="userSpaceOnUse" id="clipPath1745">
      <rect
        style="fill:none;stroke:currentColor;stroke-width:0.524999;stroke-linecap:round;stroke-linejoin:round;stroke-miterlimit:14.8;stroke-dasharray:none;stroke-opacity:1;paint-order:fill markers stroke"
        id="rect1747" width="12.955891" height="3.0869629" x="-395.73929" y="-1442.4536" ry="0.02109755" />
    </clipPath>
    <clipPath clipPathUnits="userSpaceOnUse" id="clipPath1745-7">
      <rect
        style="fill:none;stroke:currentColor;stroke-width:0.524999;stroke-linecap:round;stroke-linejoin:round;stroke-miterlimit:14.8;stroke-dasharray:none;stroke-opacity:1;paint-order:fill markers stroke"
        id="rect1747-3" width="12.955891" height="3.0869629" x="-395.73929" y="-1442.4536" ry="0.02109755" />
    </clipPath>
    <rect x="2966.4399" y="-2525.8462" width="1180.522" height="141.25903" id="rect12758-2-6" />
    <rect x="2966.4399" y="-2525.8462" width="507.33084" height="415.58511" id="rect12758-5-9-7-6-2-90-34" />
    <rect x="2966.4399" y="-2525.8462" width="507.33084" height="415.58511" id="rect12758-5-9-7-6-2-90-9-0" />
    <rect x="20.137583" y="-5647.4731" width="427.36426" height="67.125275" id="rect23339-6" />
    <rect x="20.137583" y="-5647.4731" width="369.18903" height="67.125275" id="rect23339-5-0" />
    <rect x="20.137583" y="-5647.4731" width="427.36426" height="67.125275" id="rect23339-6-2" />
    <rect x="-1787.9084" y="-6865.6152" width="434.32404" height="71.79882" id="rect3111-3" />
    <rect x="-1787.9084" y="-6865.6152" width="434.32404" height="71.79882" id="rect3111-3-4" />
    <rect x="-1787.9084" y="-6865.6152" width="434.32404" height="71.79882" id="rect3111-3-5" />
    <rect x="2966.4399" y="-2525.8462" width="1180.522" height="141.25903" id="rect12758-2-6-5" />
    <clipPath clipPathUnits="userSpaceOnUse" id="clipPath13549">
      <path
        style="fill:none;stroke:#c660cd;stroke-width:0.025;stroke-linecap:round;stroke-linejoin:round;stroke-miterlimit:14.8;stroke-dasharray:none;stroke-opacity:1;paint-order:fill markers stroke"
        d="m -15.575497,5.5724653 c 5.106052,0.9376624 6.4584197,5.2923747 6.6595525,6.3763617 0.4591926,2.009901 -0.00827,4.060091 -1.1327635,6.138847 -2.304686,2.880842 -3.902022,3.144485 -5.538196,3.551832 1.838964,0.157537 3.983331,0.226111 6.7166358,-1.953174 1.7687256,-1.759365 2.9114377,-3.90729 2.6884749,-6.902875 C -6.3716678,11.490332 -6.7311757,9.4319812 -8.9342148,7.4748684 -11.335587,5.5130197 -13.488248,5.3112855 -15.575497,5.5724653 Z"
        id="path13551" />
    </clipPath>
    <clipPath clipPathUnits="userSpaceOnUse" id="clipPath13549-3">
      <path
        style="fill:none;stroke:#c660cd;stroke-width:0.025;stroke-linecap:round;stroke-linejoin:round;stroke-miterlimit:14.8;stroke-dasharray:none;stroke-opacity:1;paint-order:fill markers stroke"
        d="m -15.575497,5.5724653 c 5.106052,0.9376624 6.4584197,5.2923747 6.6595525,6.3763617 0.4591926,2.009901 -0.00827,4.060091 -1.1327635,6.138847 -2.304686,2.880842 -3.902022,3.144485 -5.538196,3.551832 1.838964,0.157537 3.983331,0.226111 6.7166358,-1.953174 1.7687256,-1.759365 2.9114377,-3.90729 2.6884749,-6.902875 C -6.3716678,11.490332 -6.7311757,9.4319812 -8.9342148,7.4748684 -11.335587,5.5130197 -13.488248,5.3112855 -15.575497,5.5724653 Z"
        id="path13551-7" />
    </clipPath>
    <clipPath clipPathUnits="userSpaceOnUse" id="clipPath13549-3-5">
      <path
        style="fill:none;stroke:#c660cd;stroke-width:0.025;stroke-linecap:round;stroke-linejoin:round;stroke-miterlimit:14.8;stroke-dasharray:none;stroke-opacity:1;paint-order:fill markers stroke"
        d="m -15.575497,5.5724653 c 5.106052,0.9376624 6.4584197,5.2923747 6.6595525,6.3763617 0.4591926,2.009901 -0.00827,4.060091 -1.1327635,6.138847 -2.304686,2.880842 -3.902022,3.144485 -5.538196,3.551832 1.838964,0.157537 3.983331,0.226111 6.7166358,-1.953174 1.7687256,-1.759365 2.9114377,-3.90729 2.6884749,-6.902875 C -6.3716678,11.490332 -6.7311757,9.4319812 -8.9342148,7.4748684 -11.335587,5.5130197 -13.488248,5.3112855 -15.575497,5.5724653 Z"
        id="path13551-7-9" />
    </clipPath>
  </defs>
  <g id="layer1">
    <text xml:space="preserve" transform="matrix(0.31933609,0,0,0.31933609,-897.16612,-532.46276)"
      id="text12756-8-7-1-1-3-4-2"
      style="font-weight:bold;font-size:24.3039px;font-family:Poppins;-inkscape-font-specification:'Poppins Bold';white-space:pre;shape-inside:url(#rect12758-5-9-7-6-2-5-2);display:inline;fill:#31a9df;fill-opacity:1;stroke:none;stroke-width:17.1628;stroke-linecap:square;stroke-dasharray:none;stroke-opacity:1;paint-order:stroke fill markers"
      x="245.92322" y="0" /><text xml:space="preserve"
      transform="matrix(0.26458333,0,0,0.26458333,-505.10152,-321.91221)" id="text23337-3-7"
      style="font-style:normal;font-variant:normal;font-weight:normal;font-stretch:normal;font-size:64px;font-family:Poppins;-inkscape-font-specification:Poppins;text-align:center;white-space:pre;shape-inside:url(#rect23339-6-2);display:inline;fill:#f5fbfd;fill-opacity:1;stroke-width:5.66929;stroke-linecap:round;stroke-dasharray:none;paint-order:fill markers stroke">
      <tspan x="20.136719" y="-5524.3477" id="tspan14368">
        <tspan
          dx="0 17.981283 18.773294 7.2159424 7.2159462 19.829273 7.8319397 7.2159424 9.6506119 7.8319397 16.514641 18.773293 18.7733 6.1599579 6.1599731"
          style="font-size:29.3333px;fill:#8e8e8e" id="tspan14366">Build if you...</tspan>
      </tspan>
    </text>
    <circle
      style="fill:none;fill-opacity:1;stroke:currentColor;stroke-width:1.53692;stroke-linecap:round;stroke-linejoin:round;stroke-miterlimit:14.8;stroke-dasharray:none;stroke-opacity:1;paint-order:fill markers stroke"
      id="path1892-3" cx="-14.288972" cy="13.609342" r="7.6212983" transform="matrix(-1,0,0,1,0.52916667,-0.0035555)"
      clip-path="url(#clipPath13549)" />
    <circle
      style="fill:none;fill-opacity:1;stroke:currentColor;stroke-width:1.53692;stroke-linecap:round;stroke-linejoin:round;stroke-miterlimit:14.8;stroke-dasharray:none;stroke-opacity:1;paint-order:fill markers stroke"
      id="path1892-3-3" cx="-14.288972" cy="13.609342" r="7.6212983" transform="matrix(-1,0,0,1,-1.9697412,-0.0035555)"
      clip-path="url(#clipPath13549-3)" />
    <circle
      style="fill:none;fill-opacity:1;stroke:currentColor;stroke-width:1.53692;stroke-linecap:round;stroke-linejoin:round;stroke-miterlimit:14.8;stroke-dasharray:none;stroke-opacity:1;paint-order:fill markers stroke"
      id="path1892-3-3-1" cx="-14.288972" cy="13.609342" r="7.6212983"
      transform="matrix(-1,0,0,1,-4.3405877,-0.0035555)" clip-path="url(#clipPath13549-3-5)" />
    <circle
      style="fill:none;fill-opacity:1;stroke:currentColor;stroke-width:1.53692;stroke-linecap:round;stroke-linejoin:round;stroke-miterlimit:14.8;stroke-dasharray:none;stroke-opacity:1;paint-order:fill markers stroke"
      id="path1892" cx="17.378096" cy="13.590901" r="7.6212983" />
    <path
      style="fill:none;fill-opacity:1;stroke:currentColor;stroke-width:0.920048;stroke-linecap:round;stroke-linejoin:round;stroke-miterlimit:14.8;stroke-dasharray:none;stroke-opacity:1;paint-order:fill markers stroke"
      d="m 17.627986,12.197261 v -1.338915 l 1.338699,-0.02963" id="path30542-3-3" />
    <path
      style="fill:none;fill-opacity:1;stroke:currentColor;stroke-width:0.920048;stroke-linecap:round;stroke-linejoin:round;stroke-miterlimit:14.8;stroke-dasharray:none;stroke-opacity:1;paint-order:fill markers stroke"
      d="m 17.668989,10.886192 c 0.577735,0.517277 1.203977,1.073858 1.497989,1.552228 0.326562,0.531297 0.241436,1.313043 0.264248,1.930854"
      id="path30544-9-9" />
    <circle
      style="fill:none;fill-opacity:1;stroke:currentColor;stroke-width:0.920048;stroke-linecap:round;stroke-linejoin:round;stroke-miterlimit:14.8;stroke-dasharray:none;stroke-opacity:1;paint-order:fill markers stroke"
      id="path30598-0-9" cx="15.456045" cy="11.500682" r="0.94254655" />
    <circle
      style="fill:none;fill-opacity:1;stroke:currentColor;stroke-width:0.920048;stroke-linecap:round;stroke-linejoin:round;stroke-miterlimit:14.8;stroke-dasharray:none;stroke-opacity:1;paint-order:fill markers stroke"
      id="path30598-1-5-9" cx="19.410086" cy="15.325736" r="0.94254655" />
    <circle
      style="fill:none;fill-opacity:1;stroke:currentColor;stroke-width:0.920048;stroke-linecap:round;stroke-linejoin:round;stroke-miterlimit:14.8;stroke-dasharray:none;stroke-opacity:1;paint-order:fill markers stroke"
      id="path30598-1-0-2-1" cx="15.456045" cy="15.298495" r="0.94254655" />
    <rect
      style="fill:none;fill-opacity:1;stroke:currentColor;stroke-width:0.712493;stroke-linecap:round;stroke-linejoin:round;stroke-miterlimit:14.8;stroke-dasharray:none;stroke-opacity:1;paint-order:fill markers stroke"
      id="rect30696-2-7" width="0.14423385" height="1.8654056" x="15.383955" y="12.452783" ry="0.053116065" />
  </g>
</svg>